<?xml version="1.0" encoding="utf-8"?>
<!-- Generator: Adobe Illustrator 19.0.1, SVG Export Plug-In . SVG Version: 6.00 Build 0)  -->
<svg version="1.1" id="Layer_1" xmlns="http://www.w3.org/2000/svg" xmlns:xlink="http://www.w3.org/1999/xlink" x="0px" y="0px"
	 viewBox="-271 272.3 56.7 56.7" style="enable-background:new -271 272.3 56.7 56.7;" xml:space="preserve">
<style type="text/css">
	.st0{fill:#FFFFFF;}
</style>
<g>
	<circle class="st0" cx="-242.2" cy="300.3" r="4.4"/>
	<path class="st0" d="M-236.7,289.5h-11c-1.6,0-3,0.5-3.9,1.4c-0.9,0.9-1.4,2.3-1.4,3.9v11c0,1.6,0.5,3,1.5,4c1,0.9,2.3,1.4,3.9,1.4
		h10.9c1.6,0,3-0.5,3.9-1.4c1-0.9,1.5-2.3,1.5-3.9v-11c0-1.6-0.5-2.9-1.4-3.9C-233.7,290-235,289.5-236.7,289.5z M-242.2,307.1
		c-3.8,0-6.8-3.1-6.8-6.8c0-3.8,3.1-6.8,6.8-6.8s6.9,3,6.9,6.8S-238.4,307.1-242.2,307.1z M-235.1,294.8c-0.9,0-1.6-0.7-1.6-1.6
		s0.7-1.6,1.6-1.6s1.6,0.7,1.6,1.6S-234.2,294.8-235.1,294.8z"/>
	<path class="st0" d="M-242,275.5c-13.6,0-24.6,11-24.6,24.6c0,13.6,11,24.6,24.6,24.6c13.6,0,24.6-11,24.6-24.6
		C-217.3,286.5-228.4,275.5-242,275.5z M-228.9,305.9c0,2.3-0.8,4.3-2.2,5.7c-1.4,1.4-3.4,2.1-5.6,2.1h-10.9c-2.2,0-4.2-0.7-5.6-2.1
		c-1.5-1.4-2.2-3.4-2.2-5.7v-11c0-4.6,3.1-7.8,7.8-7.8h11c2.3,0,4.2,0.8,5.6,2.2c1.4,1.4,2.1,3.3,2.1,5.6
		C-228.9,294.9-228.9,305.9-228.9,305.9z"/>
</g>
</svg>
