<?xml version="1.0" encoding="utf-8"?>
<!-- Generator: Adobe Illustrator 19.0.1, SVG Export Plug-In . SVG Version: 6.00 Build 0)  -->
<svg version="1.1" id="Layer_1" xmlns="http://www.w3.org/2000/svg" xmlns:xlink="http://www.w3.org/1999/xlink" x="0px" y="0px"
	 viewBox="0 0 462.5 88.3" style="enable-background:new 0 0 462.5 88.3;" xml:space="preserve">
<style type="text/css">
	.st0{fill:#15AD4B;}
</style>
<g>
	<g>
		<path class="st0" d="M95.8,2C74.9,7.4,62.2,28.7,67.6,49.6s26.6,33.5,47.6,28.2s33.5-26.6,28.2-47.6S116.7-3.3,95.8,2z
			 M112.3,66.7c-14.8,3.8-29.8-5.1-33.6-19.9C74.9,32,83.8,16.9,98.6,13.1s29.8,5.1,33.6,19.9C136,47.8,127.1,62.9,112.3,66.7z"/>
		<circle class="st0" cx="105.5" cy="39.9" r="18.5"/>
	</g>
	<g>
		<polygon class="st0" points="168.4,69 180.1,69 180.1,43.8 203.1,43.8 203.1,32.6 180.1,32.6 180.1,18.8 203.1,18.8 203.1,7.6 
			168.4,7.6 		"/>
		<rect x="209" y="7.6" class="st0" width="11.5" height="61.3"/>
		<rect x="226.8" y="27" class="st0" width="11.5" height="42"/>
		<rect x="226.8" y="11.2" class="st0" width="11.5" height="11.5"/>
		<path class="st0" d="M268.3,26.1c-5.6,0-9.9,2.4-12.6,5.6V27h-11.5v61.3h11.5V64.8c2.7,3.1,7.2,5,12.8,5c8.9,0,20.2-7.1,20.2-21.8
			C288.6,33.1,277.8,26.1,268.3,26.1z M266.1,59.2c-6.2,0-10.8-5.1-10.8-11.3s4.5-11.3,10.8-11.3c6.4,0,11.3,4.8,11.3,11.3
			S272.5,59.2,266.1,59.2z"/>
		<polygon class="st0" points="322.9,7.6 278.7,7.6 278.7,18.8 294.9,18.8 294.9,69 306.6,69 306.6,18.8 322.9,18.8 		"/>
		<path class="st0" d="M346.2,31.1c-2.8-2.9-7.1-5-12.5-5c-9.5,0-20.4,7-20.4,21.8c0,14.8,11.3,21.8,20.2,21.8
			c5.5,0,9.9-2.3,12.7-5.5V69h11.5V27h-11.5V31.1z M335.8,59.2c-6.4,0-11.3-4.9-11.3-11.3s4.9-11.3,11.3-11.3
			c6.2,0,10.8,5,10.8,11.3S342,59.2,335.8,59.2z"/>
		<rect x="363.6" y="7.6" class="st0" width="11.5" height="61.3"/>
		<path class="st0" d="M401.5,26.1c-12.1,0-21.8,9.7-21.8,21.8s9.1,21.8,22.2,21.8c9.3,0,16-4.6,19.6-11.2l-9.2-5.5
			c-1.8,4-5.7,6.6-10.3,6.6c-6,0-9.8-3-11.2-7.6h32.4v-4.2C423.2,35.8,414.4,26.1,401.5,26.1z M391.3,42.8c1.8-3.9,5.5-6.6,10.3-6.6
			s8.5,2.3,10,6.6H391.3z"/>
		<path class="st0" d="M447.3,42.7c-6.3-1.3-8.7-1.9-8.7-3.8c0-1.8,1.7-3.4,5.5-3.4c3.8,0,6.6,1.8,7.7,4.6l10.2-4.3
			c-3-5.9-8.4-9.7-17.8-9.7c-10.4-0.2-17.2,6.1-17.2,13.2c0,9,7.6,11.6,15.1,12.9c4.9,0.9,9,1.6,9,3.9c0,2-2,3.8-5.8,3.8
			c-4.1,0-7.3-1.8-8.8-5.7l-11,4.3c3,7.4,9.2,11.3,19.3,11.3c12.1,0.2,17.8-7.9,17.8-14C462.5,46.7,454.4,44.2,447.3,42.7z"/>
	</g>
	<path class="st0" d="M11.4,11.4c-15.2,15.2-15.2,39.8,0,55s39.8,15.2,55,0s15.2-39.8,0-55S26.6-3.8,11.4,11.4z M46.3,39l15.9,15.9
		l-7.3,7.3L39,46.3L23.1,62.1l-7.3-7.3L31.7,39L15.8,23.1l7.3-7.3L39,31.7l15.9-15.9l7.3,7.3L46.3,39z"/>
</g>
</svg>
