<svg width="45" height="45" viewBox="0 0 45 45" fill="none" xmlns="http://www.w3.org/2000/svg">
<path fill-rule="evenodd" clip-rule="evenodd" d="M44.3601 22.1801C44.3601 34.4298 34.4298 44.3601 22.1801 44.3601C9.93035 44.3601 0 34.4298 0 22.1801C0 9.93035 9.93035 0 22.1801 0C34.4298 0 44.3601 9.93035 44.3601 22.1801ZM37.8827 22.1801C37.8827 30.8524 30.8524 37.8828 22.18 37.8828C13.5077 37.8828 6.47737 30.8524 6.47737 22.1801C6.47737 13.5077 13.5077 6.47741 22.18 6.47741C30.8524 6.47741 37.8827 13.5077 37.8827 22.1801ZM22.1801 32.7793C28.0339 32.7793 32.7794 28.0339 32.7794 22.18C32.7794 16.3262 28.0339 11.5807 22.1801 11.5807C16.3262 11.5807 11.5807 16.3262 11.5807 22.18C11.5807 28.0339 16.3262 32.7793 22.1801 32.7793Z" fill="#FF910A"/>
</svg>
